<?xml version="1.0" encoding="utf-8"?>
<!-- Generator: Adobe Illustrator 20.1.0, SVG Export Plug-In . SVG Version: 6.00 Build 0)  -->
<svg version="1.1" id="Calque_1" xmlns="http://www.w3.org/2000/svg" xmlns:xlink="http://www.w3.org/1999/xlink" x="0px" y="0px"
	 viewBox="0 0 1920 1080" style="enable-background:new 0 0 1920 1080;" xml:space="preserve">
<style type="text/css">
	.st0{fill:#FFFFFF;}
	.st1{fill:url(#SVGID_1_);}
	.st2{fill:url(#SVGID_2_);}
	.st3{fill:url(#SVGID_3_);}
	.st4{fill:url(#SVGID_4_);}
	.st5{fill:url(#SVGID_5_);}
	.st6{fill:url(#SVGID_6_);}
	.st7{fill:url(#SVGID_7_);}
	.st8{fill:url(#SVGID_8_);}
	.st9{fill:url(#SVGID_9_);}
	.st10{fill:url(#SVGID_10_);}
	.st11{fill:url(#SVGID_11_);}
	.st12{fill:url(#SVGID_12_);}
</style>
<g id="reseaux">
	<g>
		<g>
			<g>
				<g>
					<polygon class="st0" points="5,662.8 5,669 44.9,828.5 46.4,828.1 					"/>
				</g>
			</g>
			<g>
				<g>
					
						<rect x="1131" y="379.3" transform="matrix(0.9837 -0.1796 0.1796 0.9837 -47.7391 232.842)" class="st0" width="262.4" height="1.5"/>
				</g>
				<g>
					
						<rect x="1131" y="379.3" transform="matrix(0.9837 -0.1796 0.1796 0.9837 -47.7391 232.842)" class="st0" width="262.4" height="1.5"/>
				</g>
			</g>
			<g>
				<g>
					<polygon class="st0" points="46.4,828.3 44.9,828.2 76.3,399 77.8,399.1 					"/>
				</g>
				<g>
					<polygon class="st0" points="5,463.6 77.5,399.6 76.5,398.5 5,461.5 					"/>
				</g>
			</g>
			<g>
				<g>
					<polygon class="st0" points="547.2,604.8 334.3,319 335.5,318 548.4,603.9 					"/>
				</g>
				<g>
					
						<rect x="70.9" y="358" transform="matrix(0.9548 -0.2973 0.2973 0.9548 -97.3491 77.4574)" class="st0" width="270.2" height="1.5"/>
				</g>
				<g>
					<polygon class="st0" points="5,479.9 335.3,319.2 334.6,317.8 5,478.2 					"/>
				</g>
			</g>
			<g>
				<g>
					
						<rect x="326" y="319" transform="matrix(0.9597 -0.2809 0.2809 0.9597 -76.5102 105.7059)" class="st0" width="9.2" height="1.5"/>
				</g>
				<g>
					<polygon class="st0" points="77.2,399.8 76.8,398.3 325.9,320.3 326.4,321.8 					"/>
				</g>
				<g>
					<polygon class="st0" points="5,479.7 326.5,321.8 325.8,320.4 5,478 					"/>
				</g>
			</g>
			<g>
				<g>
					
						<rect x="435.7" y="292.3" transform="matrix(0.8722 -0.4891 0.4891 0.8722 -197.471 279.6182)" class="st0" width="1.5" height="451"/>
				</g>
				<g>
					<polygon class="st0" points="547.5,714.4 546,714.4 547,604.3 548.6,604.4 					"/>
				</g>
			</g>
			<g>
				<g>
					
						<rect x="1305.8" y="277.7" transform="matrix(0.8212 -0.5706 0.5706 0.8212 83.6006 823.7382)" class="st0" width="101.4" height="1.5"/>
				</g>
				<g>
					
						<rect x="1352.3" y="286.5" transform="matrix(0.5404 -0.8414 0.8414 0.5404 342.6058 1291.0691)" class="st0" width="1.5" height="90.9"/>
				</g>
				<g>
					
						<rect x="1121.2" y="354.8" transform="matrix(0.8834 -0.4686 0.4686 0.8834 -23.8995 615.0444)" class="st0" width="205.7" height="1.5"/>
				</g>
				<g>
					
						<rect x="1121.2" y="354.8" transform="matrix(0.8834 -0.4686 0.4686 0.8834 -23.8995 615.0444)" class="st0" width="205.7" height="1.5"/>
				</g>
			</g>
			<g>
				<g>
					<polygon class="st0" points="570.8,326.3 334.9,319.3 335,317.7 570.9,324.8 					"/>
				</g>
				<g>
					
						<rect x="419.4" y="464.2" transform="matrix(8.202589e-02 -0.9966 0.9966 8.202589e-02 50.0685 984.2463)" class="st0" width="279.8" height="1.5"/>
				</g>
			</g>
			<g>
				<g>
					
						<rect x="705.7" y="279.6" transform="matrix(0.7943 -0.6076 0.6076 0.7943 -160.164 532.6693)" class="st0" width="1.5" height="446.5"/>
				</g>
				<g>
					<polygon class="st0" points="546.8,715.2 546.6,713.7 842,679.4 842.2,680.9 					"/>
				</g>
				<g>
					
						<rect x="694.2" y="490.3" transform="matrix(0.2494 -0.9684 0.9684 0.2494 -100.3235 1155.063)" class="st0" width="1.5" height="303.9"/>
				</g>
				<g>
					<polygon class="st0" points="842.6,680.7 841.6,679.6 1132.6,403.2 1133.7,404.3 					"/>
				</g>
				<g>
					<polygon class="st0" points="842.6,680.7 841.6,679.6 1132.6,403.2 1133.7,404.3 					"/>
				</g>
			</g>
			<g>
				<g>
					<polygon class="st0" points="842.9,680.3 841.3,680 895.7,377.7 897.2,378 					"/>
				</g>
				<g>
					<polygon class="st0" points="896.3,378.6 570.7,326.3 571,324.8 896.6,377.1 					"/>
				</g>
				<g>
					<polygon class="st0" points="896.6,378.6 896.3,377.1 1314.7,306.6 1315,308.1 					"/>
				</g>
				<g>
					<polygon class="st0" points="548.2,605 547.4,603.7 896,377.2 896.9,378.5 					"/>
				</g>
				<g>
					
						<rect x="1014" y="271.7" transform="matrix(0.1088 -0.9941 0.9941 0.1088 515.9641 1357.0388)" class="st0" width="1.5" height="238.1"/>
				</g>
				<g>
					
						<rect x="1014" y="271.7" transform="matrix(0.1088 -0.9941 0.9941 0.1088 515.9641 1357.0388)" class="st0" width="1.5" height="238.1"/>
				</g>
			</g>
			<g>
				<g>
					<polygon class="st0" points="1370.3,677.6 1314.1,307.5 1315.6,307.3 1371.8,677.3 					"/>
				</g>
				<g>
					
						<rect x="1170.2" y="462.7" transform="matrix(6.252801e-02 -0.998 0.998 6.252801e-02 835.4166 1816.3492)" class="st0" width="428.8" height="1.5"/>
				</g>
				<g>
					
						<rect x="1220.4" y="516.2" transform="matrix(6.252801e-02 -0.998 0.998 6.252801e-02 778.8708 1863.1256)" class="st0" width="321.6" height="1.5"/>
				</g>
				<g>
					
						<rect x="1251.3" y="359.2" transform="matrix(0.7547 -0.656 0.656 0.7547 -47.5332 954.0186)" class="st0" width="1.5" height="362.7"/>
				</g>
				<g>
					
						<rect x="1251.3" y="359.2" transform="matrix(0.7547 -0.656 0.656 0.7547 -47.5332 954.0186)" class="st0" width="1.5" height="362.7"/>
				</g>
			</g>
			<g>
				<g>
					
						<rect x="440.7" y="746.3" transform="matrix(0.9459 -0.3245 0.3245 0.9459 -207.4217 250.4131)" class="st0" width="412.5" height="1.5"/>
				</g>
				<g>
					<polygon class="st0" points="452.4,814.4 451.3,813.4 546.2,713.9 547.3,715 					"/>
				</g>
				<g>
					<polygon class="st0" points="452.6,814.2 451.2,813.6 547.1,604 548.5,604.7 					"/>
				</g>
				<g>
					
						<rect x="45.5" y="820.3" transform="matrix(0.9994 -3.517821e-02 3.517821e-02 0.9994 -28.7303 9.259)" class="st0" width="406.5" height="1.5"/>
				</g>
			</g>
			<g>
				<g>
					
						<rect x="295.7" y="479.8" transform="matrix(0.6443 -0.7648 0.7648 0.6443 -416.8644 469.6537)" class="st0" width="1.5" height="406.4"/>
				</g>
				<g>
					<polygon class="st0" points="546.4,715.1 140.8,552.8 141.4,551.3 547,713.7 					"/>
				</g>
				<g>
					<polygon class="st0" points="141.7,552.5 140.5,551.6 334.3,318 335.5,319 					"/>
				</g>
				<g>
					<polygon class="st0" points="547.7,605.1 141,552.8 141.2,551.3 547.9,603.6 					"/>
				</g>
				<g>
					
						<rect x="108.3" y="392.6" transform="matrix(0.9224 -0.3862 0.3862 0.9224 -175.1786 78.9938)" class="st0" width="1.5" height="165.9"/>
				</g>
				<g>
					<polygon class="st0" points="46.4,828.5 44.9,828 140.3,551.8 141.8,552.3 					"/>
				</g>
				<g>
					<polygon class="st0" points="5,510.9 5,512.5 140.9,552.8 141.3,551.3 					"/>
				</g>
			</g>
			<g>
				<g>
					
						<rect x="1149.1" y="701.7" transform="matrix(0.9749 -0.2225 0.2225 0.9749 -124.6648 298.2449)" class="st0" width="224.8" height="1.5"/>
				</g>
				<g>
					
						<rect x="1023.4" y="336.1" transform="matrix(0.8075 -0.5899 0.5899 0.8075 -128.836 710.5868)" class="st0" width="1.5" height="433.1"/>
				</g>
				<g>
					<polygon class="st0" points="1151.8,728.3 842,680.9 842.2,679.4 1152,726.8 					"/>
				</g>
				<g>
					<polygon class="st0" points="1152.6,727.8 1151.2,727.2 1314.1,307.1 1315.5,307.7 					"/>
				</g>
				<g>
					
						<rect x="1050.8" y="541.2" transform="matrix(0.5427 -0.8399 0.8399 0.5427 126.2319 1315.8696)" class="st0" width="441.5" height="1.5"/>
				</g>
				<g>
					
						<rect x="1141.8" y="403.4" transform="matrix(0.9983 -5.792304e-02 5.792304e-02 0.9983 -30.844 67.1285)" class="st0" width="1.5" height="324.3"/>
				</g>
				<g>
					
						<rect x="1141.8" y="403.4" transform="matrix(0.9983 -5.792304e-02 5.792304e-02 0.9983 -30.844 67.1285)" class="st0" width="1.5" height="324.3"/>
				</g>
			</g>
			<g>
				<g>
					<polygon class="st0" points="1915.2,387.9 1622.2,230.8 1621.5,232.2 1915.2,389.6 					"/>
				</g>
				<g>
					<polygon class="st0" points="1315,308.1 1314.6,306.6 1621.7,230.7 1622,232.2 					"/>
				</g>
				<g>
					<polygon class="st0" points="1398.1,250.3 1398,248.8 1621.8,230.7 1621.9,232.2 					"/>
				</g>
				<g>
					
						<rect x="1375.5" y="293.2" transform="matrix(0.8792 -0.4765 0.4765 0.8792 41.948 753.409)" class="st0" width="262.2" height="1.5"/>
				</g>
			</g>
			<g>
				<g>
					<polygon class="st0" points="1616.6,734.8 1370.9,678.2 1371.2,676.7 1617,733.3 					"/>
				</g>
				<g>
					<polygon class="st0" points="1616.1,734.5 1390.6,356.9 1392,356.1 1617.5,733.7 					"/>
				</g>
			</g>
			<g>
				<g>
					<polygon class="st0" points="1617.5,734.4 1616.1,733.8 1698.8,528.1 1700.2,528.7 					"/>
				</g>
				<g>
					
						<rect x="1659.9" y="226.5" transform="matrix(0.9674 -0.2532 0.2532 0.9674 -42.0902 432.813)" class="st0" width="1.5" height="306.9"/>
				</g>
				<g>
					<polygon class="st0" points="1915.2,460.8 1699.3,527.7 1699.8,529.1 1915.2,462.5 					"/>
				</g>
				<g>
					
						<rect x="1355" y="602.2" transform="matrix(0.9101 -0.4144 0.4144 0.9101 -111.818 690.5012)" class="st0" width="360.7" height="1.5"/>
				</g>
				<g>
					
						<rect x="1548" y="183.6" transform="matrix(0.6791 -0.7341 0.7341 0.6791 211.521 1261.7566)" class="st0" width="1.5" height="410.7"/>
				</g>
				<g>
					<polygon class="st0" points="1699.2,529.1 1390.9,357.2 1391.7,355.8 1699.9,527.7 					"/>
				</g>
			</g>
			<g>
				<g>
					<polygon class="st0" points="1915.2,584.2 1699.7,527.7 1699.4,529.2 1915.2,585.7 					"/>
				</g>
			</g>
			<g>
				<g>
					<polygon class="st0" points="1915.2,708.8 1784,751 1784.5,752.4 1915.2,710.4 					"/>
				</g>
				<g>
					
						<rect x="1741.1" y="520.7" transform="matrix(0.935 -0.3547 0.3547 0.935 -113.7721 659.4572)" class="st0" width="1.5" height="238.8"/>
				</g>
				<g>
					
						<rect x="1699.8" y="658.7" transform="matrix(0.1046 -0.9945 0.9945 0.1046 783.7947 2356.3684)" class="st0" width="1.5" height="168.4"/>
				</g>
				<g>
					<polygon class="st0" points="1915.2,559.4 1783.6,751.3 1784.9,752.1 1915.2,562.1 					"/>
				</g>
			</g>
		</g>
		<g>
			
				<ellipse transform="matrix(0.9594 -0.282 0.282 0.9594 -231.7245 46.4887)" class="st0" cx="45.6" cy="828.3" rx="4.6" ry="4.6"/>
			<path class="st0" d="M1134.4,408.1c-2.4,0.7-5-0.7-5.7-3.1c-0.7-2.4,0.7-5,3.1-5.7c2.4-0.7,5,0.7,5.7,3.1
				C1138.2,404.9,1136.9,407.4,1134.4,408.1z"/>
			<path class="st0" d="M1392.6,360.9c-2.4,0.7-5-0.7-5.7-3.1c-0.7-2.4,0.7-5,3.1-5.7c2.4-0.7,5,0.7,5.7,3.1
				C1396.4,357.6,1395,360.2,1392.6,360.9z"/>
			<path class="st0" d="M1134.4,408.1c-2.4,0.7-5-0.7-5.7-3.1c-0.7-2.4,0.7-5,3.1-5.7c2.4-0.7,5,0.7,5.7,3.1
				C1138.2,404.9,1136.9,407.4,1134.4,408.1z"/>
			<path class="st0" d="M1392.6,360.9c-2.4,0.7-5-0.7-5.7-3.1c-0.7-2.4,0.7-5,3.1-5.7c2.4-0.7,5,0.7,5.7,3.1
				C1396.4,357.6,1395,360.2,1392.6,360.9z"/>
			
				<ellipse transform="matrix(0.9594 -0.282 0.282 0.9594 -231.7245 46.4887)" class="st0" cx="45.6" cy="828.3" rx="4.6" ry="4.6"/>
			<path class="st0" d="M78.3,403.4c-2.4,0.7-5-0.7-5.7-3.1c-0.7-2.4,0.7-5,3.1-5.7c2.4-0.7,5,0.7,5.7,3.1
				C82.1,400.2,80.7,402.7,78.3,403.4z"/>
			<path class="st0" d="M78.3,403.4c-2.4,0.7-5-0.7-5.7-3.1c-0.7-2.4,0.7-5,3.1-5.7c2.4-0.7,5,0.7,5.7,3.1
				C82.1,400.2,80.7,402.7,78.3,403.4z"/>
			<path class="st0" d="M1392.6,360.9c-2.4,0.7-5-0.7-5.7-3.1c-0.7-2.4,0.7-5,3.1-5.7c2.4-0.7,5,0.7,5.7,3.1
				C1396.4,357.6,1395,360.2,1392.6,360.9z"/>
			
				<ellipse transform="matrix(0.9594 -0.2821 0.2821 0.9594 -13.6122 404.4783)" class="st0" cx="1398.1" cy="249.5" rx="4.6" ry="4.6"/>
			<path class="st0" d="M1134.4,408.1c-2.4,0.7-5-0.7-5.7-3.1c-0.7-2.4,0.7-5,3.1-5.7c2.4-0.7,5,0.7,5.7,3.1
				C1138.2,404.9,1136.9,407.4,1134.4,408.1z"/>
			
				<ellipse transform="matrix(0.9594 -0.2821 0.2821 0.9594 -13.6122 404.4783)" class="st0" cx="1398.1" cy="249.5" rx="4.6" ry="4.6"/>
			<path class="st0" d="M1134.4,408.1c-2.4,0.7-5-0.7-5.7-3.1c-0.7-2.4,0.7-5,3.1-5.7c2.4-0.7,5,0.7,5.7,3.1
				C1138.2,404.9,1136.9,407.4,1134.4,408.1z"/>
			
				<ellipse transform="matrix(0.9594 -0.2821 0.2821 0.9594 -13.6122 404.4783)" class="st0" cx="1398.1" cy="249.5" rx="4.6" ry="4.6"/>
			<path class="st0" d="M549.1,608.7c-2.4,0.7-5-0.7-5.7-3.1c-0.7-2.4,0.7-5,3.1-5.7c2.4-0.7,5,0.7,5.7,3.1
				C552.9,605.5,551.5,608,549.1,608.7z"/>
			<path class="st0" d="M336.2,322.9c-2.4,0.7-5-0.7-5.7-3.1c-0.7-2.4,0.7-5,3.1-5.7c2.4-0.7,5,0.7,5.7,3.1
				C340,319.6,338.7,322.2,336.2,322.9z"/>
			<path class="st0" d="M78.3,403.4c-2.4,0.7-5-0.7-5.7-3.1c-0.7-2.4,0.7-5,3.1-5.7c2.4-0.7,5,0.7,5.7,3.1
				C82.1,400.2,80.7,402.7,78.3,403.4z"/>
			<path class="st0" d="M336.2,322.9c-2.4,0.7-5-0.7-5.7-3.1c-0.7-2.4,0.7-5,3.1-5.7c2.4-0.7,5,0.7,5.7,3.1
				C340,319.6,338.7,322.2,336.2,322.9z"/>
			<path class="st0" d="M336.2,322.9c-2.4,0.7-5-0.7-5.7-3.1c-0.7-2.4,0.7-5,3.1-5.7c2.4-0.7,5,0.7,5.7,3.1
				C340,319.6,338.7,322.2,336.2,322.9z"/>
			<path class="st0" d="M336.2,322.9c-2.4,0.7-5-0.7-5.7-3.1c-0.7-2.4,0.7-5,3.1-5.7c2.4-0.7,5,0.7,5.7,3.1
				C340,319.6,338.7,322.2,336.2,322.9z"/>
			
				<ellipse transform="matrix(0.9594 -0.2821 0.2821 0.9594 -77.3231 105.0336)" class="st0" cx="326.1" cy="321.1" rx="4.6" ry="4.6"/>
			<path class="st0" d="M549.1,608.7c-2.4,0.7-5-0.7-5.7-3.1c-0.7-2.4,0.7-5,3.1-5.7c2.4-0.7,5,0.7,5.7,3.1
				C552.9,605.5,551.5,608,549.1,608.7z"/>
			
				<ellipse transform="matrix(0.9594 -0.2821 0.2821 0.9594 -77.3231 105.0336)" class="st0" cx="326.1" cy="321.1" rx="4.6" ry="4.6"/>
			<path class="st0" d="M78.3,403.4c-2.4,0.7-5-0.7-5.7-3.1c-0.7-2.4,0.7-5,3.1-5.7c2.4-0.7,5,0.7,5.7,3.1
				C82.1,400.2,80.7,402.7,78.3,403.4z"/>
			
				<ellipse transform="matrix(0.9594 -0.2821 0.2821 0.9594 -77.3231 105.0336)" class="st0" cx="326.1" cy="321.1" rx="4.6" ry="4.6"/>
			
				<ellipse transform="matrix(0.9594 -0.2821 0.2821 0.9594 -77.3231 105.0336)" class="st0" cx="326.1" cy="321.1" rx="4.6" ry="4.6"/>
			
				<ellipse transform="matrix(0.9594 -0.2821 0.2821 0.9594 -77.3231 105.0336)" class="st0" cx="326.1" cy="321.1" rx="4.6" ry="4.6"/>
			<path class="st0" d="M548,718.8c-2.4,0.7-5-0.7-5.7-3.1c-0.7-2.4,0.7-5,3.1-5.7c2.4-0.7,5,0.7,5.7,3.1
				C551.8,715.6,550.4,718.1,548,718.8z"/>
			<path class="st0" d="M336.2,322.9c-2.4,0.7-5-0.7-5.7-3.1c-0.7-2.4,0.7-5,3.1-5.7c2.4-0.7,5,0.7,5.7,3.1
				C340,319.6,338.7,322.2,336.2,322.9z"/>
			<path class="st0" d="M548,718.8c-2.4,0.7-5-0.7-5.7-3.1c-0.7-2.4,0.7-5,3.1-5.7c2.4-0.7,5,0.7,5.7,3.1
				C551.8,715.6,550.4,718.1,548,718.8z"/>
			<path class="st0" d="M549.1,608.7c-2.4,0.7-5-0.7-5.7-3.1c-0.7-2.4,0.7-5,3.1-5.7c2.4-0.7,5,0.7,5.7,3.1
				C552.9,605.5,551.5,608,549.1,608.7z"/>
			<path class="st0" d="M548,718.8c-2.4,0.7-5-0.7-5.7-3.1c-0.7-2.4,0.7-5,3.1-5.7c2.4-0.7,5,0.7,5.7,3.1
				C551.8,715.6,550.4,718.1,548,718.8z"/>
			
				<ellipse transform="matrix(0.9594 -0.2821 0.2821 0.9594 -13.6122 404.4783)" class="st0" cx="1398.1" cy="249.5" rx="4.6" ry="4.6"/>
			
				<ellipse transform="matrix(0.9596 -0.2815 0.2815 0.9596 -33.3607 382.4881)" class="st0" cx="1314.8" cy="307.4" rx="4.6" ry="4.6"/>
			<path class="st0" d="M1392.6,360.9c-2.4,0.7-5-0.7-5.7-3.1c-0.7-2.4,0.7-5,3.1-5.7c2.4-0.7,5,0.7,5.7,3.1
				C1396.4,357.6,1395,360.2,1392.6,360.9z"/>
			
				<ellipse transform="matrix(0.9596 -0.2815 0.2815 0.9596 -33.3607 382.4881)" class="st0" cx="1314.8" cy="307.4" rx="4.6" ry="4.6"/>
			<path class="st0" d="M1134.4,408.1c-2.4,0.7-5-0.7-5.7-3.1c-0.7-2.4,0.7-5,3.1-5.7c2.4-0.7,5,0.7,5.7,3.1
				C1138.2,404.9,1136.9,407.4,1134.4,408.1z"/>
			
				<ellipse transform="matrix(0.9596 -0.2815 0.2815 0.9596 -33.3607 382.4881)" class="st0" cx="1314.8" cy="307.4" rx="4.6" ry="4.6"/>
			<path class="st0" d="M1134.4,408.1c-2.4,0.7-5-0.7-5.7-3.1c-0.7-2.4,0.7-5,3.1-5.7c2.4-0.7,5,0.7,5.7,3.1
				C1138.2,404.9,1136.9,407.4,1134.4,408.1z"/>
			
				<ellipse transform="matrix(0.9596 -0.2815 0.2815 0.9596 -33.3607 382.4881)" class="st0" cx="1314.8" cy="307.4" rx="4.6" ry="4.6"/>
			<path class="st0" d="M548,718.8c-2.4,0.7-5-0.7-5.7-3.1c-0.7-2.4,0.7-5,3.1-5.7c2.4-0.7,5,0.7,5.7,3.1
				C551.8,715.6,550.4,718.1,548,718.8z"/>
			<path class="st0" d="M572.2,329.9c-2.4,0.7-5-0.7-5.7-3.1c-0.7-2.4,0.7-5,3.1-5.7c2.4-0.7,5,0.7,5.7,3.1
				C576,326.7,574.6,329.2,572.2,329.9z"/>
			
				<ellipse transform="matrix(0.9594 -0.2821 0.2821 0.9594 -77.3231 105.0336)" class="st0" cx="326.1" cy="321.1" rx="4.6" ry="4.6"/>
			<path class="st0" d="M572.2,329.9c-2.4,0.7-5-0.7-5.7-3.1c-0.7-2.4,0.7-5,3.1-5.7c2.4-0.7,5,0.7,5.7,3.1
				C576,326.7,574.6,329.2,572.2,329.9z"/>
			<path class="st0" d="M336.2,322.9c-2.4,0.7-5-0.7-5.7-3.1c-0.7-2.4,0.7-5,3.1-5.7c2.4-0.7,5,0.7,5.7,3.1
				C340,319.6,338.7,322.2,336.2,322.9z"/>
			<path class="st0" d="M572.2,329.9c-2.4,0.7-5-0.7-5.7-3.1c-0.7-2.4,0.7-5,3.1-5.7c2.4-0.7,5,0.7,5.7,3.1
				C576,326.7,574.6,329.2,572.2,329.9z"/>
			<path class="st0" d="M549.1,608.7c-2.4,0.7-5-0.7-5.7-3.1c-0.7-2.4,0.7-5,3.1-5.7c2.4-0.7,5,0.7,5.7,3.1
				C552.9,605.5,551.5,608,549.1,608.7z"/>
			<path class="st0" d="M572.2,329.9c-2.4,0.7-5-0.7-5.7-3.1c-0.7-2.4,0.7-5,3.1-5.7c2.4-0.7,5,0.7,5.7,3.1
				C576,326.7,574.6,329.2,572.2,329.9z"/>
			<path class="st0" d="M572.2,329.9c-2.4,0.7-5-0.7-5.7-3.1c-0.7-2.4,0.7-5,3.1-5.7c2.4-0.7,5,0.7,5.7,3.1
				C576,326.7,574.6,329.2,572.2,329.9z"/>
			<path class="st0" d="M843.4,684.5c-2.4,0.7-5-0.7-5.7-3.1c-0.7-2.4,0.7-5,3.1-5.7c2.4-0.7,5,0.7,5.7,3.1
				C847.2,681.3,845.8,683.8,843.4,684.5z"/>
			<path class="st0" d="M548,718.8c-2.4,0.7-5-0.7-5.7-3.1c-0.7-2.4,0.7-5,3.1-5.7c2.4-0.7,5,0.7,5.7,3.1
				C551.8,715.6,550.4,718.1,548,718.8z"/>
			<path class="st0" d="M843.4,684.5c-2.4,0.7-5-0.7-5.7-3.1c-0.7-2.4,0.7-5,3.1-5.7c2.4-0.7,5,0.7,5.7,3.1
				C847.2,681.3,845.8,683.8,843.4,684.5z"/>
			<path class="st0" d="M549.1,608.7c-2.4,0.7-5-0.7-5.7-3.1c-0.7-2.4,0.7-5,3.1-5.7c2.4-0.7,5,0.7,5.7,3.1
				C552.9,605.5,551.5,608,549.1,608.7z"/>
			<path class="st0" d="M843.4,684.5c-2.4,0.7-5-0.7-5.7-3.1c-0.7-2.4,0.7-5,3.1-5.7c2.4-0.7,5,0.7,5.7,3.1
				C847.2,681.3,845.8,683.8,843.4,684.5z"/>
			<path class="st0" d="M1134.4,408.1c-2.4,0.7-5-0.7-5.7-3.1c-0.7-2.4,0.7-5,3.1-5.7c2.4-0.7,5,0.7,5.7,3.1
				C1138.2,404.9,1136.9,407.4,1134.4,408.1z"/>
			<path class="st0" d="M843.4,684.5c-2.4,0.7-5-0.7-5.7-3.1c-0.7-2.4,0.7-5,3.1-5.7c2.4-0.7,5,0.7,5.7,3.1
				C847.2,681.3,845.8,683.8,843.4,684.5z"/>
			<path class="st0" d="M1134.4,408.1c-2.4,0.7-5-0.7-5.7-3.1c-0.7-2.4,0.7-5,3.1-5.7c2.4-0.7,5,0.7,5.7,3.1
				C1138.2,404.9,1136.9,407.4,1134.4,408.1z"/>
			<path class="st0" d="M843.4,684.5c-2.4,0.7-5-0.7-5.7-3.1c-0.7-2.4,0.7-5,3.1-5.7c2.4-0.7,5,0.7,5.7,3.1
				C847.2,681.3,845.8,683.8,843.4,684.5z"/>
			<path class="st0" d="M843.4,684.5c-2.4,0.7-5-0.7-5.7-3.1c-0.7-2.4,0.7-5,3.1-5.7c2.4-0.7,5,0.7,5.7,3.1
				C847.2,681.3,845.8,683.8,843.4,684.5z"/>
			<path class="st0" d="M897.7,382.2c-2.4,0.7-5-0.7-5.7-3.1c-0.7-2.4,0.7-5,3.1-5.7c2.4-0.7,5,0.7,5.7,3.1
				C901.6,379,900.2,381.5,897.7,382.2z"/>
			<path class="st0" d="M572.2,329.9c-2.4,0.7-5-0.7-5.7-3.1c-0.7-2.4,0.7-5,3.1-5.7c2.4-0.7,5,0.7,5.7,3.1
				C576,326.7,574.6,329.2,572.2,329.9z"/>
			<path class="st0" d="M897.7,382.2c-2.4,0.7-5-0.7-5.7-3.1c-0.7-2.4,0.7-5,3.1-5.7c2.4-0.7,5,0.7,5.7,3.1
				C901.6,379,900.2,381.5,897.7,382.2z"/>
			
				<ellipse transform="matrix(0.9596 -0.2815 0.2815 0.9596 -33.3607 382.4881)" class="st0" cx="1314.8" cy="307.4" rx="4.6" ry="4.6"/>
			<path class="st0" d="M897.7,382.2c-2.4,0.7-5-0.7-5.7-3.1c-0.7-2.4,0.7-5,3.1-5.7c2.4-0.7,5,0.7,5.7,3.1
				C901.6,379,900.2,381.5,897.7,382.2z"/>
			<path class="st0" d="M549.1,608.7c-2.4,0.7-5-0.7-5.7-3.1c-0.7-2.4,0.7-5,3.1-5.7c2.4-0.7,5,0.7,5.7,3.1
				C552.9,605.5,551.5,608,549.1,608.7z"/>
			<path class="st0" d="M897.7,382.2c-2.4,0.7-5-0.7-5.7-3.1c-0.7-2.4,0.7-5,3.1-5.7c2.4-0.7,5,0.7,5.7,3.1
				C901.6,379,900.2,381.5,897.7,382.2z"/>
			<path class="st0" d="M1134.4,408.1c-2.4,0.7-5-0.7-5.7-3.1c-0.7-2.4,0.7-5,3.1-5.7c2.4-0.7,5,0.7,5.7,3.1
				C1138.2,404.9,1136.9,407.4,1134.4,408.1z"/>
			<path class="st0" d="M897.7,382.2c-2.4,0.7-5-0.7-5.7-3.1c-0.7-2.4,0.7-5,3.1-5.7c2.4-0.7,5,0.7,5.7,3.1
				C901.6,379,900.2,381.5,897.7,382.2z"/>
			<path class="st0" d="M1134.4,408.1c-2.4,0.7-5-0.7-5.7-3.1c-0.7-2.4,0.7-5,3.1-5.7c2.4-0.7,5,0.7,5.7,3.1
				C1138.2,404.9,1136.9,407.4,1134.4,408.1z"/>
			<path class="st0" d="M897.7,382.2c-2.4,0.7-5-0.7-5.7-3.1c-0.7-2.4,0.7-5,3.1-5.7c2.4-0.7,5,0.7,5.7,3.1
				C901.6,379,900.2,381.5,897.7,382.2z"/>
			
				<ellipse transform="matrix(0.9596 -0.2815 0.2815 0.9596 -33.3607 382.4881)" class="st0" cx="1314.8" cy="307.4" rx="4.6" ry="4.6"/>
			
				<ellipse transform="matrix(0.9594 -0.282 0.282 0.9594 -135.3894 414.1223)" class="st0" cx="1371.1" cy="677.4" rx="4.6" ry="4.6"/>
			
				<ellipse transform="matrix(0.9594 -0.2821 0.2821 0.9594 -13.6122 404.4783)" class="st0" cx="1398.1" cy="249.5" rx="4.6" ry="4.6"/>
			
				<ellipse transform="matrix(0.9594 -0.282 0.282 0.9594 -135.3894 414.1223)" class="st0" cx="1371.1" cy="677.4" rx="4.6" ry="4.6"/>
			<path class="st0" d="M1392.6,360.9c-2.4,0.7-5-0.7-5.7-3.1c-0.7-2.4,0.7-5,3.1-5.7c2.4-0.7,5,0.7,5.7,3.1
				C1396.4,357.6,1395,360.2,1392.6,360.9z"/>
			
				<ellipse transform="matrix(0.9594 -0.282 0.282 0.9594 -135.3894 414.1223)" class="st0" cx="1371.1" cy="677.4" rx="4.6" ry="4.6"/>
			<path class="st0" d="M1134.4,408.1c-2.4,0.7-5-0.7-5.7-3.1c-0.7-2.4,0.7-5,3.1-5.7c2.4-0.7,5,0.7,5.7,3.1
				C1138.2,404.9,1136.9,407.4,1134.4,408.1z"/>
			
				<ellipse transform="matrix(0.9594 -0.282 0.282 0.9594 -135.3894 414.1223)" class="st0" cx="1371.1" cy="677.4" rx="4.6" ry="4.6"/>
			<path class="st0" d="M1134.4,408.1c-2.4,0.7-5-0.7-5.7-3.1c-0.7-2.4,0.7-5,3.1-5.7c2.4-0.7,5,0.7,5.7,3.1
				C1138.2,404.9,1136.9,407.4,1134.4,408.1z"/>
			
				<ellipse transform="matrix(0.9594 -0.282 0.282 0.9594 -135.3894 414.1223)" class="st0" cx="1371.1" cy="677.4" rx="4.6" ry="4.6"/>
			<path class="st0" d="M843.4,684.5c-2.4,0.7-5-0.7-5.7-3.1c-0.7-2.4,0.7-5,3.1-5.7c2.4-0.7,5,0.7,5.7,3.1
				C847.2,681.3,845.8,683.8,843.4,684.5z"/>
			<path class="st0" d="M453.2,818.3c-2.4,0.7-5-0.7-5.7-3.1c-0.7-2.4,0.7-5,3.1-5.7c2.4-0.7,5,0.7,5.7,3.1
				C457,815,455.6,817.6,453.2,818.3z"/>
			<path class="st0" d="M548,718.8c-2.4,0.7-5-0.7-5.7-3.1c-0.7-2.4,0.7-5,3.1-5.7c2.4-0.7,5,0.7,5.7,3.1
				C551.8,715.6,550.4,718.1,548,718.8z"/>
			<path class="st0" d="M453.2,818.3c-2.4,0.7-5-0.7-5.7-3.1c-0.7-2.4,0.7-5,3.1-5.7c2.4-0.7,5,0.7,5.7,3.1
				C457,815,455.6,817.6,453.2,818.3z"/>
			<path class="st0" d="M549.1,608.7c-2.4,0.7-5-0.7-5.7-3.1c-0.7-2.4,0.7-5,3.1-5.7c2.4-0.7,5,0.7,5.7,3.1
				C552.9,605.5,551.5,608,549.1,608.7z"/>
			<path class="st0" d="M453.2,818.3c-2.4,0.7-5-0.7-5.7-3.1c-0.7-2.4,0.7-5,3.1-5.7c2.4-0.7,5,0.7,5.7,3.1
				C457,815,455.6,817.6,453.2,818.3z"/>
			
				<ellipse transform="matrix(0.9594 -0.282 0.282 0.9594 -231.7245 46.4887)" class="st0" cx="45.6" cy="828.3" rx="4.6" ry="4.6"/>
			<path class="st0" d="M453.2,818.3c-2.4,0.7-5-0.7-5.7-3.1c-0.7-2.4,0.7-5,3.1-5.7c2.4-0.7,5,0.7,5.7,3.1
				C457,815,455.6,817.6,453.2,818.3z"/>
			<path class="st0" d="M453.2,818.3c-2.4,0.7-5-0.7-5.7-3.1c-0.7-2.4,0.7-5,3.1-5.7c2.4-0.7,5,0.7,5.7,3.1
				C457,815,455.6,817.6,453.2,818.3z"/>
			<path class="st0" d="M142.4,556.4c-2.4,0.7-5-0.7-5.7-3.1c-0.7-2.4,0.7-5,3.1-5.7c2.4-0.7,5,0.7,5.7,3.1
				C146.2,553.2,144.8,555.7,142.4,556.4z"/>
			<path class="st0" d="M548,718.8c-2.4,0.7-5-0.7-5.7-3.1c-0.7-2.4,0.7-5,3.1-5.7c2.4-0.7,5,0.7,5.7,3.1
				C551.8,715.6,550.4,718.1,548,718.8z"/>
			<path class="st0" d="M142.4,556.4c-2.4,0.7-5-0.7-5.7-3.1c-0.7-2.4,0.7-5,3.1-5.7c2.4-0.7,5,0.7,5.7,3.1
				C146.2,553.2,144.8,555.7,142.4,556.4z"/>
			
				<ellipse transform="matrix(0.9594 -0.2821 0.2821 0.9594 -77.3231 105.0336)" class="st0" cx="326.1" cy="321.1" rx="4.6" ry="4.6"/>
			<path class="st0" d="M142.4,556.4c-2.4,0.7-5-0.7-5.7-3.1c-0.7-2.4,0.7-5,3.1-5.7c2.4-0.7,5,0.7,5.7,3.1
				C146.2,553.2,144.8,555.7,142.4,556.4z"/>
			<path class="st0" d="M336.2,322.9c-2.4,0.7-5-0.7-5.7-3.1c-0.7-2.4,0.7-5,3.1-5.7c2.4-0.7,5,0.7,5.7,3.1
				C340,319.6,338.7,322.2,336.2,322.9z"/>
			<path class="st0" d="M142.4,556.4c-2.4,0.7-5-0.7-5.7-3.1c-0.7-2.4,0.7-5,3.1-5.7c2.4-0.7,5,0.7,5.7,3.1
				C146.2,553.2,144.8,555.7,142.4,556.4z"/>
			<path class="st0" d="M549.1,608.7c-2.4,0.7-5-0.7-5.7-3.1c-0.7-2.4,0.7-5,3.1-5.7c2.4-0.7,5,0.7,5.7,3.1
				C552.9,605.5,551.5,608,549.1,608.7z"/>
			<path class="st0" d="M142.4,556.4c-2.4,0.7-5-0.7-5.7-3.1c-0.7-2.4,0.7-5,3.1-5.7c2.4-0.7,5,0.7,5.7,3.1
				C146.2,553.2,144.8,555.7,142.4,556.4z"/>
			<path class="st0" d="M78.3,403.4c-2.4,0.7-5-0.7-5.7-3.1c-0.7-2.4,0.7-5,3.1-5.7c2.4-0.7,5,0.7,5.7,3.1
				C82.1,400.2,80.7,402.7,78.3,403.4z"/>
			<path class="st0" d="M142.4,556.4c-2.4,0.7-5-0.7-5.7-3.1c-0.7-2.4,0.7-5,3.1-5.7c2.4-0.7,5,0.7,5.7,3.1
				C146.2,553.2,144.8,555.7,142.4,556.4z"/>
			
				<ellipse transform="matrix(0.9594 -0.282 0.282 0.9594 -231.7245 46.4887)" class="st0" cx="45.6" cy="828.3" rx="4.6" ry="4.6"/>
			<path class="st0" d="M142.4,556.4c-2.4,0.7-5-0.7-5.7-3.1c-0.7-2.4,0.7-5,3.1-5.7c2.4-0.7,5,0.7,5.7,3.1
				C146.2,553.2,144.8,555.7,142.4,556.4z"/>
			<path class="st0" d="M142.4,556.4c-2.4,0.7-5-0.7-5.7-3.1c-0.7-2.4,0.7-5,3.1-5.7c2.4-0.7,5,0.7,5.7,3.1
				C146.2,553.2,144.8,555.7,142.4,556.4z"/>
			
				<ellipse transform="matrix(0.9594 -0.282 0.282 0.9594 -135.3894 414.1223)" class="st0" cx="1371.1" cy="677.4" rx="4.6" ry="4.6"/>
			<path class="st0" d="M1153.2,731.9c-2.4,0.7-5-0.7-5.7-3.1c-0.7-2.4,0.7-5,3.1-5.7c2.4-0.7,5,0.7,5.7,3.1
				C1157,728.6,1155.6,731.2,1153.2,731.9z"/>
			<path class="st0" d="M897.7,382.2c-2.4,0.7-5-0.7-5.7-3.1c-0.7-2.4,0.7-5,3.1-5.7c2.4-0.7,5,0.7,5.7,3.1
				C901.6,379,900.2,381.5,897.7,382.2z"/>
			<path class="st0" d="M1153.2,731.9c-2.4,0.7-5-0.7-5.7-3.1c-0.7-2.4,0.7-5,3.1-5.7c2.4-0.7,5,0.7,5.7,3.1
				C1157,728.6,1155.6,731.2,1153.2,731.9z"/>
			<path class="st0" d="M843.4,684.5c-2.4,0.7-5-0.7-5.7-3.1c-0.7-2.4,0.7-5,3.1-5.7c2.4-0.7,5,0.7,5.7,3.1
				C847.2,681.3,845.8,683.8,843.4,684.5z"/>
			<path class="st0" d="M1153.2,731.9c-2.4,0.7-5-0.7-5.7-3.1c-0.7-2.4,0.7-5,3.1-5.7c2.4-0.7,5,0.7,5.7,3.1
				C1157,728.6,1155.6,731.2,1153.2,731.9z"/>
			
				<ellipse transform="matrix(0.9596 -0.2815 0.2815 0.9596 -33.3607 382.4881)" class="st0" cx="1314.8" cy="307.4" rx="4.6" ry="4.6"/>
			<path class="st0" d="M1153.2,731.9c-2.4,0.7-5-0.7-5.7-3.1c-0.7-2.4,0.7-5,3.1-5.7c2.4-0.7,5,0.7,5.7,3.1
				C1157,728.6,1155.6,731.2,1153.2,731.9z"/>
			<path class="st0" d="M1392.6,360.9c-2.4,0.7-5-0.7-5.7-3.1c-0.7-2.4,0.7-5,3.1-5.7c2.4-0.7,5,0.7,5.7,3.1
				C1396.4,357.6,1395,360.2,1392.6,360.9z"/>
			<path class="st0" d="M1153.2,731.9c-2.4,0.7-5-0.7-5.7-3.1c-0.7-2.4,0.7-5,3.1-5.7c2.4-0.7,5,0.7,5.7,3.1
				C1157,728.6,1155.6,731.2,1153.2,731.9z"/>
			<path class="st0" d="M1134.4,408.1c-2.4,0.7-5-0.7-5.7-3.1c-0.7-2.4,0.7-5,3.1-5.7c2.4-0.7,5,0.7,5.7,3.1
				C1138.2,404.9,1136.9,407.4,1134.4,408.1z"/>
			<path class="st0" d="M1153.2,731.9c-2.4,0.7-5-0.7-5.7-3.1c-0.7-2.4,0.7-5,3.1-5.7c2.4-0.7,5,0.7,5.7,3.1
				C1157,728.6,1155.6,731.2,1153.2,731.9z"/>
			<path class="st0" d="M1134.4,408.1c-2.4,0.7-5-0.7-5.7-3.1c-0.7-2.4,0.7-5,3.1-5.7c2.4-0.7,5,0.7,5.7,3.1
				C1138.2,404.9,1136.9,407.4,1134.4,408.1z"/>
			<path class="st0" d="M1153.2,731.9c-2.4,0.7-5-0.7-5.7-3.1c-0.7-2.4,0.7-5,3.1-5.7c2.4-0.7,5,0.7,5.7,3.1
				C1157,728.6,1155.6,731.2,1153.2,731.9z"/>
			<path class="st0" d="M1623.1,235.9c-2.4,0.7-5-0.7-5.7-3.1c-0.7-2.4,0.7-5,3.1-5.7c2.4-0.7,5,0.7,5.7,3.1
				C1626.9,232.6,1625.6,235.2,1623.1,235.9z"/>
			
				<ellipse transform="matrix(0.9596 -0.2815 0.2815 0.9596 -33.3607 382.4881)" class="st0" cx="1314.8" cy="307.4" rx="4.6" ry="4.6"/>
			<path class="st0" d="M1623.1,235.9c-2.4,0.7-5-0.7-5.7-3.1c-0.7-2.4,0.7-5,3.1-5.7c2.4-0.7,5,0.7,5.7,3.1
				C1626.9,232.6,1625.6,235.2,1623.1,235.9z"/>
			
				<ellipse transform="matrix(0.9594 -0.2821 0.2821 0.9594 -13.6122 404.4783)" class="st0" cx="1398.1" cy="249.5" rx="4.6" ry="4.6"/>
			<path class="st0" d="M1623.1,235.9c-2.4,0.7-5-0.7-5.7-3.1c-0.7-2.4,0.7-5,3.1-5.7c2.4-0.7,5,0.7,5.7,3.1
				C1626.9,232.6,1625.6,235.2,1623.1,235.9z"/>
			<path class="st0" d="M1392.6,360.9c-2.4,0.7-5-0.7-5.7-3.1c-0.7-2.4,0.7-5,3.1-5.7c2.4-0.7,5,0.7,5.7,3.1
				C1396.4,357.6,1395,360.2,1392.6,360.9z"/>
			<path class="st0" d="M1623.1,235.9c-2.4,0.7-5-0.7-5.7-3.1c-0.7-2.4,0.7-5,3.1-5.7c2.4-0.7,5,0.7,5.7,3.1
				C1626.9,232.6,1625.6,235.2,1623.1,235.9z"/>
			
				<ellipse transform="matrix(0.9594 -0.282 0.282 0.9594 -135.3894 414.1223)" class="st0" cx="1371.1" cy="677.4" rx="4.6" ry="4.6"/>
			<path class="st0" d="M1618.1,738.5c-2.4,0.7-5-0.7-5.7-3.1c-0.7-2.4,0.7-5,3.1-5.7c2.4-0.7,5,0.7,5.7,3.1
				C1621.9,735.2,1620.5,737.8,1618.1,738.5z"/>
			<path class="st0" d="M1392.6,360.9c-2.4,0.7-5-0.7-5.7-3.1c-0.7-2.4,0.7-5,3.1-5.7c2.4-0.7,5,0.7,5.7,3.1
				C1396.4,357.6,1395,360.2,1392.6,360.9z"/>
			<path class="st0" d="M1618.1,738.5c-2.4,0.7-5-0.7-5.7-3.1c-0.7-2.4,0.7-5,3.1-5.7c2.4-0.7,5,0.7,5.7,3.1
				C1621.9,735.2,1620.5,737.8,1618.1,738.5z"/>
			<path class="st0" d="M1618.1,738.5c-2.4,0.7-5-0.7-5.7-3.1c-0.7-2.4,0.7-5,3.1-5.7c2.4-0.7,5,0.7,5.7,3.1
				C1621.9,735.2,1620.5,737.8,1618.1,738.5z"/>
			<path class="st0" d="M1700.8,532.8c-2.4,0.7-5-0.7-5.7-3.1c-0.7-2.4,0.7-5,3.1-5.7c2.4-0.7,5,0.7,5.7,3.1
				C1704.6,529.6,1703.3,532.1,1700.8,532.8z"/>
			<path class="st0" d="M1623.1,235.9c-2.4,0.7-5-0.7-5.7-3.1c-0.7-2.4,0.7-5,3.1-5.7c2.4-0.7,5,0.7,5.7,3.1
				C1626.9,232.6,1625.6,235.2,1623.1,235.9z"/>
			<path class="st0" d="M1700.8,532.8c-2.4,0.7-5-0.7-5.7-3.1c-0.7-2.4,0.7-5,3.1-5.7c2.4-0.7,5,0.7,5.7,3.1
				C1704.6,529.6,1703.3,532.1,1700.8,532.8z"/>
			<path class="st0" d="M1700.8,532.8c-2.4,0.7-5-0.7-5.7-3.1c-0.7-2.4,0.7-5,3.1-5.7c2.4-0.7,5,0.7,5.7,3.1
				C1704.6,529.6,1703.3,532.1,1700.8,532.8z"/>
			
				<ellipse transform="matrix(0.9594 -0.282 0.282 0.9594 -135.3894 414.1223)" class="st0" cx="1371.1" cy="677.4" rx="4.6" ry="4.6"/>
			<path class="st0" d="M1700.8,532.8c-2.4,0.7-5-0.7-5.7-3.1c-0.7-2.4,0.7-5,3.1-5.7c2.4-0.7,5,0.7,5.7,3.1
				C1704.6,529.6,1703.3,532.1,1700.8,532.8z"/>
			
				<ellipse transform="matrix(0.9596 -0.2815 0.2815 0.9596 -33.3607 382.4881)" class="st0" cx="1314.8" cy="307.4" rx="4.6" ry="4.6"/>
			<path class="st0" d="M1700.8,532.8c-2.4,0.7-5-0.7-5.7-3.1c-0.7-2.4,0.7-5,3.1-5.7c2.4-0.7,5,0.7,5.7,3.1
				C1704.6,529.6,1703.3,532.1,1700.8,532.8z"/>
			
				<ellipse transform="matrix(0.9594 -0.2821 0.2821 0.9594 -13.6122 404.4783)" class="st0" cx="1398.1" cy="249.5" rx="4.6" ry="4.6"/>
			<path class="st0" d="M1700.8,532.8c-2.4,0.7-5-0.7-5.7-3.1c-0.7-2.4,0.7-5,3.1-5.7c2.4-0.7,5,0.7,5.7,3.1
				C1704.6,529.6,1703.3,532.1,1700.8,532.8z"/>
			<path class="st0" d="M1392.6,360.9c-2.4,0.7-5-0.7-5.7-3.1c-0.7-2.4,0.7-5,3.1-5.7c2.4-0.7,5,0.7,5.7,3.1
				C1396.4,357.6,1395,360.2,1392.6,360.9z"/>
			<path class="st0" d="M1700.8,532.8c-2.4,0.7-5-0.7-5.7-3.1c-0.7-2.4,0.7-5,3.1-5.7c2.4-0.7,5,0.7,5.7,3.1
				C1704.6,529.6,1703.3,532.1,1700.8,532.8z"/>
			<path class="st0" d="M1700.8,532.8c-2.4,0.7-5-0.7-5.7-3.1c-0.7-2.4,0.7-5,3.1-5.7c2.4-0.7,5,0.7,5.7,3.1
				C1704.6,529.6,1703.3,532.1,1700.8,532.8z"/>
			<path class="st0" d="M1785.5,756.1c-2.4,0.7-5-0.7-5.7-3.1c-0.7-2.4,0.7-5,3.1-5.7c2.4-0.7,5,0.7,5.7,3.1
				C1789.3,752.8,1788,755.4,1785.5,756.1z"/>
			<path class="st0" d="M1700.8,532.8c-2.4,0.7-5-0.7-5.7-3.1c-0.7-2.4,0.7-5,3.1-5.7c2.4-0.7,5,0.7,5.7,3.1
				C1704.6,529.6,1703.3,532.1,1700.8,532.8z"/>
			<path class="st0" d="M1785.5,756.1c-2.4,0.7-5-0.7-5.7-3.1c-0.7-2.4,0.7-5,3.1-5.7c2.4-0.7,5,0.7,5.7,3.1
				C1789.3,752.8,1788,755.4,1785.5,756.1z"/>
			<path class="st0" d="M1618.1,738.5c-2.4,0.7-5-0.7-5.7-3.1c-0.7-2.4,0.7-5,3.1-5.7c2.4-0.7,5,0.7,5.7,3.1
				C1621.9,735.2,1620.5,737.8,1618.1,738.5z"/>
			<path class="st0" d="M1785.5,756.1c-2.4,0.7-5-0.7-5.7-3.1c-0.7-2.4,0.7-5,3.1-5.7c2.4-0.7,5,0.7,5.7,3.1
				C1789.3,752.8,1788,755.4,1785.5,756.1z"/>
			<path class="st0" d="M1785.5,756.1c-2.4,0.7-5-0.7-5.7-3.1c-0.7-2.4,0.7-5,3.1-5.7c2.4-0.7,5,0.7,5.7,3.1
				C1789.3,752.8,1788,755.4,1785.5,756.1z"/>
			
				<ellipse transform="matrix(0.9594 -0.282 0.282 0.9594 -135.3894 414.1223)" class="st0" cx="1371.1" cy="677.4" rx="4.6" ry="4.6"/>
			<path class="st0" d="M1785.5,756.1c-2.4,0.7-5-0.7-5.7-3.1c-0.7-2.4,0.7-5,3.1-5.7c2.4-0.7,5,0.7,5.7,3.1
				C1789.3,752.8,1788,755.4,1785.5,756.1z"/>
		</g>
	</g>
	<g>
		<g>
			<g>
				<g>
					<polygon class="st0" points="5,662.8 5,669 44.9,828.5 46.4,828.1 					"/>
				</g>
			</g>
			<g>
				<g>
					
						<rect x="1131" y="379.3" transform="matrix(0.9837 -0.1796 0.1796 0.9837 -47.7391 232.842)" class="st0" width="262.4" height="1.5"/>
				</g>
				<g>
					
						<rect x="1131" y="379.3" transform="matrix(0.9837 -0.1796 0.1796 0.9837 -47.7391 232.842)" class="st0" width="262.4" height="1.5"/>
				</g>
			</g>
			<g>
				<g>
					<polygon class="st0" points="46.4,828.3 44.9,828.2 76.3,399 77.8,399.1 					"/>
				</g>
				<g>
					<polygon class="st0" points="5,463.6 77.5,399.6 76.5,398.5 5,461.5 					"/>
				</g>
			</g>
			<g>
				<g>
					<polygon class="st0" points="547.2,604.8 334.3,319 335.5,318 548.4,603.9 					"/>
				</g>
				<g>
					
						<rect x="70.9" y="358" transform="matrix(0.9548 -0.2973 0.2973 0.9548 -97.3491 77.4574)" class="st0" width="270.2" height="1.5"/>
				</g>
			</g>
			<g>
				<g>
					
						<rect x="326" y="319" transform="matrix(0.9597 -0.2809 0.2809 0.9597 -76.5102 105.7059)" class="st0" width="9.2" height="1.5"/>
				</g>
				<g>
					<polygon class="st0" points="77.2,399.8 76.8,398.3 325.9,320.3 326.4,321.8 					"/>
				</g>
			</g>
			<g>
				<g>
					
						<rect x="435.7" y="292.3" transform="matrix(0.8722 -0.4891 0.4891 0.8722 -197.471 279.6182)" class="st0" width="1.5" height="451"/>
				</g>
				<g>
					<polygon class="st0" points="547.5,714.4 546,714.4 547,604.3 548.6,604.4 					"/>
				</g>
			</g>
			<g>
				<g>
					
						<rect x="1305.8" y="277.7" transform="matrix(0.8212 -0.5706 0.5706 0.8212 83.6006 823.7382)" class="st0" width="101.4" height="1.5"/>
				</g>
				<g>
					
						<rect x="1352.3" y="286.5" transform="matrix(0.5404 -0.8414 0.8414 0.5404 342.6058 1291.0691)" class="st0" width="1.5" height="90.9"/>
				</g>
				<g>
					
						<rect x="1121.2" y="354.8" transform="matrix(0.8834 -0.4686 0.4686 0.8834 -23.8995 615.0444)" class="st0" width="205.7" height="1.5"/>
				</g>
				<g>
					
						<rect x="1121.2" y="354.8" transform="matrix(0.8834 -0.4686 0.4686 0.8834 -23.8995 615.0444)" class="st0" width="205.7" height="1.5"/>
				</g>
			</g>
			<g>
				<g>
					<polygon class="st0" points="570.8,326.3 334.9,319.3 335,317.7 570.9,324.8 					"/>
				</g>
				<g>
					
						<rect x="419.4" y="464.2" transform="matrix(8.202589e-02 -0.9966 0.9966 8.202589e-02 50.0685 984.2463)" class="st0" width="279.8" height="1.5"/>
				</g>
			</g>
			<g>
				<g>
					
						<rect x="705.7" y="279.6" transform="matrix(0.7943 -0.6076 0.6076 0.7943 -160.164 532.6693)" class="st0" width="1.5" height="446.5"/>
				</g>
				<g>
					<polygon class="st0" points="546.8,715.2 546.6,713.7 842,679.4 842.2,680.9 					"/>
				</g>
				<g>
					
						<rect x="694.2" y="490.3" transform="matrix(0.2494 -0.9684 0.9684 0.2494 -100.3235 1155.063)" class="st0" width="1.5" height="303.9"/>
				</g>
				<g>
					<polygon class="st0" points="842.6,680.7 841.6,679.6 1132.6,403.2 1133.7,404.3 					"/>
				</g>
				<g>
					<polygon class="st0" points="842.6,680.7 841.6,679.6 1132.6,403.2 1133.7,404.3 					"/>
				</g>
			</g>
			<g>
				<g>
					<polygon class="st0" points="842.9,680.3 841.3,680 895.7,377.7 897.2,378 					"/>
				</g>
				<g>
					<polygon class="st0" points="896.3,378.6 570.7,326.3 571,324.8 896.6,377.1 					"/>
				</g>
				<g>
					<polygon class="st0" points="896.6,378.6 896.3,377.1 1314.7,306.6 1315,308.1 					"/>
				</g>
				<g>
					<polygon class="st0" points="548.2,605 547.4,603.7 896,377.2 896.9,378.5 					"/>
				</g>
				<g>
					
						<rect x="1014" y="271.7" transform="matrix(0.1088 -0.9941 0.9941 0.1088 515.9641 1357.0388)" class="st0" width="1.5" height="238.1"/>
				</g>
				<g>
					
						<rect x="1014" y="271.7" transform="matrix(0.1088 -0.9941 0.9941 0.1088 515.9641 1357.0388)" class="st0" width="1.5" height="238.1"/>
				</g>
			</g>
			<g>
				<g>
					<polygon class="st0" points="1370.3,677.6 1314.1,307.5 1315.6,307.3 1371.8,677.3 					"/>
				</g>
				<g>
					
						<rect x="1170.2" y="462.7" transform="matrix(6.252801e-02 -0.998 0.998 6.252801e-02 835.4166 1816.3492)" class="st0" width="428.8" height="1.5"/>
				</g>
				<g>
					
						<rect x="1220.4" y="516.2" transform="matrix(6.252801e-02 -0.998 0.998 6.252801e-02 778.8708 1863.1256)" class="st0" width="321.6" height="1.5"/>
				</g>
				<g>
					
						<rect x="1251.3" y="359.2" transform="matrix(0.7547 -0.656 0.656 0.7547 -47.5332 954.0186)" class="st0" width="1.5" height="362.7"/>
				</g>
				<g>
					
						<rect x="1251.3" y="359.2" transform="matrix(0.7547 -0.656 0.656 0.7547 -47.5332 954.0186)" class="st0" width="1.5" height="362.7"/>
				</g>
			</g>
			<g>
				<g>
					
						<rect x="440.7" y="746.3" transform="matrix(0.9459 -0.3245 0.3245 0.9459 -207.4217 250.4131)" class="st0" width="412.5" height="1.5"/>
				</g>
				<g>
					<polygon class="st0" points="452.4,814.4 451.3,813.4 546.2,713.9 547.3,715 					"/>
				</g>
				<g>
					<polygon class="st0" points="452.6,814.2 451.2,813.6 547.1,604 548.5,604.7 					"/>
				</g>
				<g>
					
						<rect x="45.5" y="820.3" transform="matrix(0.9994 -3.517821e-02 3.517821e-02 0.9994 -28.7303 9.259)" class="st0" width="406.5" height="1.5"/>
				</g>
			</g>
			<g>
				<g>
					
						<rect x="295.7" y="479.8" transform="matrix(0.6443 -0.7648 0.7648 0.6443 -416.8644 469.6537)" class="st0" width="1.5" height="406.4"/>
				</g>
				<g>
					<polygon class="st0" points="546.4,715.1 140.8,552.8 141.4,551.3 547,713.7 					"/>
				</g>
				<g>
					<polygon class="st0" points="141.7,552.5 140.5,551.6 334.3,318 335.5,319 					"/>
				</g>
				<g>
					<polygon class="st0" points="547.7,605.1 141,552.8 141.2,551.3 547.9,603.6 					"/>
				</g>
				<g>
					
						<rect x="108.3" y="392.6" transform="matrix(0.9224 -0.3862 0.3862 0.9224 -175.1786 78.9938)" class="st0" width="1.5" height="165.9"/>
				</g>
				<g>
					<polygon class="st0" points="46.4,828.5 44.9,828 140.3,551.8 141.8,552.3 					"/>
				</g>
				<g>
					<polygon class="st0" points="5,510.9 5,512.5 140.9,552.8 141.3,551.3 					"/>
				</g>
			</g>
			<g>
				<g>
					
						<rect x="1149.1" y="701.7" transform="matrix(0.9749 -0.2225 0.2225 0.9749 -124.6648 298.2449)" class="st0" width="224.8" height="1.5"/>
				</g>
				<g>
					
						<rect x="1023.4" y="336.1" transform="matrix(0.8075 -0.5899 0.5899 0.8075 -128.836 710.5868)" class="st0" width="1.5" height="433.1"/>
				</g>
				<g>
					<polygon class="st0" points="1151.8,728.3 842,680.9 842.2,679.4 1152,726.8 					"/>
				</g>
				<g>
					<polygon class="st0" points="1152.6,727.8 1151.2,727.2 1314.1,307.1 1315.5,307.7 					"/>
				</g>
				<g>
					
						<rect x="1050.8" y="541.2" transform="matrix(0.5427 -0.8399 0.8399 0.5427 126.2319 1315.8696)" class="st0" width="441.5" height="1.5"/>
				</g>
				<g>
					
						<rect x="1141.8" y="403.4" transform="matrix(0.9983 -5.792304e-02 5.792304e-02 0.9983 -30.844 67.1285)" class="st0" width="1.5" height="324.3"/>
				</g>
				<g>
					
						<rect x="1141.8" y="403.4" transform="matrix(0.9983 -5.792304e-02 5.792304e-02 0.9983 -30.844 67.1285)" class="st0" width="1.5" height="324.3"/>
				</g>
			</g>
			<g>
				<g>
					<polygon class="st0" points="1915.2,387.9 1622.2,230.8 1621.5,232.2 1915.2,389.6 					"/>
				</g>
				<g>
					<polygon class="st0" points="1315,308.1 1314.6,306.6 1621.7,230.7 1622,232.2 					"/>
				</g>
				<g>
					<polygon class="st0" points="1398.1,250.3 1398,248.8 1621.8,230.7 1621.9,232.2 					"/>
				</g>
				<g>
					
						<rect x="1375.5" y="293.2" transform="matrix(0.8792 -0.4765 0.4765 0.8792 41.948 753.409)" class="st0" width="262.2" height="1.5"/>
				</g>
			</g>
			<g>
				<g>
					<polygon class="st0" points="1616.6,734.8 1370.9,678.2 1371.2,676.7 1617,733.3 					"/>
				</g>
				<g>
					<polygon class="st0" points="1616.1,734.5 1390.6,356.9 1392,356.1 1617.5,733.7 					"/>
				</g>
			</g>
			<g>
				<g>
					<polygon class="st0" points="1617.5,734.4 1616.1,733.8 1698.8,528.1 1700.2,528.7 					"/>
				</g>
				<g>
					
						<rect x="1659.9" y="226.5" transform="matrix(0.9674 -0.2532 0.2532 0.9674 -42.0902 432.813)" class="st0" width="1.5" height="306.9"/>
				</g>
				<g>
					<polygon class="st0" points="1915.2,460.8 1699.3,527.7 1699.8,529.1 1915.2,462.5 					"/>
				</g>
				<g>
					
						<rect x="1355" y="602.2" transform="matrix(0.9101 -0.4144 0.4144 0.9101 -111.818 690.5012)" class="st0" width="360.7" height="1.5"/>
				</g>
				<g>
					
						<rect x="1548" y="183.6" transform="matrix(0.6791 -0.7341 0.7341 0.6791 211.521 1261.7566)" class="st0" width="1.5" height="410.7"/>
				</g>
				<g>
					<polygon class="st0" points="1699.2,529.1 1390.9,357.2 1391.7,355.8 1699.9,527.7 					"/>
				</g>
			</g>
			<g>
				<g>
					<polygon class="st0" points="1915.2,584.2 1699.7,527.7 1699.4,529.2 1915.2,585.7 					"/>
				</g>
			</g>
			<g>
				<g>
					<polygon class="st0" points="1915.2,708.8 1784,751 1784.5,752.4 1915.2,710.4 					"/>
				</g>
				<g>
					
						<rect x="1741.1" y="520.7" transform="matrix(0.935 -0.3547 0.3547 0.935 -113.7721 659.4572)" class="st0" width="1.5" height="238.8"/>
				</g>
				<g>
					
						<rect x="1699.8" y="658.7" transform="matrix(0.1046 -0.9945 0.9945 0.1046 783.7947 2356.3684)" class="st0" width="1.5" height="168.4"/>
				</g>
				<g>
					<polygon class="st0" points="1915.2,559.4 1783.6,751.3 1784.9,752.1 1915.2,562.1 					"/>
				</g>
			</g>
		</g>
	</g>
</g>
<g>
	<g>
		
			<radialGradient id="SVGID_1_" cx="252.4319" cy="360.0904" r="52.665" gradientTransform="matrix(0.9997 -2.470000e-02 2.470000e-02 0.9997 65.1102 -31.9332)" gradientUnits="userSpaceOnUse">
			<stop  offset="0.1123" style="stop-color:#FFFFFF"/>
			<stop  offset="0.1266" style="stop-color:#FEFCF9"/>
			<stop  offset="0.1485" style="stop-color:#FCF2E6"/>
			<stop  offset="0.1753" style="stop-color:#F7E2C6"/>
			<stop  offset="0.2058" style="stop-color:#F0CC9A"/>
			<stop  offset="0.2126" style="stop-color:#EFC68F"/>
			<stop  offset="0.246" style="stop-color:#DCBB8F"/>
			<stop  offset="0.3139" style="stop-color:#ACA18B"/>
			<stop  offset="0.3849" style="stop-color:#748585"/>
			<stop  offset="0.439" style="stop-color:#576467"/>
			<stop  offset="0.5034" style="stop-color:#3E474C"/>
			<stop  offset="0.5712" style="stop-color:#2A3136"/>
			<stop  offset="0.6417" style="stop-color:#1B2024"/>
			<stop  offset="0.716" style="stop-color:#0F1316"/>
			<stop  offset="0.7955" style="stop-color:#06080A"/>
			<stop  offset="0.8842" style="stop-color:#020304"/>
			<stop  offset="1" style="stop-color:#020203"/>
		</radialGradient>
		<path class="st1" d="M379,320.5c0.7,29.1-22.3,53.2-51.4,54c-29.1,0.7-53.2-22.3-54-51.4C273,294,296,269.9,325,269.2
			C354.1,268.4,378.3,291.4,379,320.5z"/>
	</g>
</g>
<g>
	<g>
		
			<radialGradient id="SVGID_2_" cx="61.7061" cy="586.4215" r="52.665" gradientTransform="matrix(0.9997 -2.470000e-02 2.470000e-02 0.9997 65.1102 -31.9332)" gradientUnits="userSpaceOnUse">
			<stop  offset="0.1123" style="stop-color:#FFFFFF"/>
			<stop  offset="0.1266" style="stop-color:#FEFCF9"/>
			<stop  offset="0.1485" style="stop-color:#FCF2E6"/>
			<stop  offset="0.1753" style="stop-color:#F7E2C6"/>
			<stop  offset="0.2058" style="stop-color:#F0CC9A"/>
			<stop  offset="0.2126" style="stop-color:#EFC68F"/>
			<stop  offset="0.246" style="stop-color:#DCBB8F"/>
			<stop  offset="0.3139" style="stop-color:#ACA18B"/>
			<stop  offset="0.3849" style="stop-color:#748585"/>
			<stop  offset="0.439" style="stop-color:#576467"/>
			<stop  offset="0.5034" style="stop-color:#3E474C"/>
			<stop  offset="0.5712" style="stop-color:#2A3136"/>
			<stop  offset="0.6417" style="stop-color:#1B2024"/>
			<stop  offset="0.716" style="stop-color:#0F1316"/>
			<stop  offset="0.7955" style="stop-color:#06080A"/>
			<stop  offset="0.8842" style="stop-color:#020304"/>
			<stop  offset="1" style="stop-color:#020203"/>
		</radialGradient>
		<path class="st2" d="M193.9,551.5c0.7,29.1-22.3,53.2-51.4,54c-29.1,0.7-53.2-22.3-54-51.4c-0.7-29.1,22.3-53.2,51.3-53.9
			C169,499.4,193.2,522.4,193.9,551.5z"/>
	</g>
</g>
<g>
	<g>
		
			<radialGradient id="SVGID_3_" cx="465.5783" cy="650.8861" r="52.665" gradientTransform="matrix(0.9997 -2.470000e-02 2.470000e-02 0.9997 65.1102 -31.9332)" gradientUnits="userSpaceOnUse">
			<stop  offset="0.1123" style="stop-color:#FFFFFF"/>
			<stop  offset="0.1266" style="stop-color:#FEFCF9"/>
			<stop  offset="0.1485" style="stop-color:#FCF2E6"/>
			<stop  offset="0.1753" style="stop-color:#F7E2C6"/>
			<stop  offset="0.2058" style="stop-color:#F0CC9A"/>
			<stop  offset="0.2126" style="stop-color:#EFC68F"/>
			<stop  offset="0.246" style="stop-color:#DCBB8F"/>
			<stop  offset="0.3139" style="stop-color:#ACA18B"/>
			<stop  offset="0.3849" style="stop-color:#748585"/>
			<stop  offset="0.439" style="stop-color:#576467"/>
			<stop  offset="0.5034" style="stop-color:#3E474C"/>
			<stop  offset="0.5712" style="stop-color:#2A3136"/>
			<stop  offset="0.6417" style="stop-color:#1B2024"/>
			<stop  offset="0.716" style="stop-color:#0F1316"/>
			<stop  offset="0.7955" style="stop-color:#06080A"/>
			<stop  offset="0.8842" style="stop-color:#020304"/>
			<stop  offset="1" style="stop-color:#020203"/>
		</radialGradient>
		<path class="st3" d="M599.3,606c0.7,29.1-22.3,53.2-51.4,54c-29.1,0.7-53.2-22.3-54-51.4c-0.7-29.1,22.3-53.2,51.3-53.9
			C574.4,553.9,598.6,576.9,599.3,606z"/>
	</g>
</g>
<g>
	<g>
		
			<radialGradient id="SVGID_4_" cx="820.3262" cy="430.5966" r="52.665" gradientTransform="matrix(0.9997 -2.470000e-02 2.470000e-02 0.9997 65.1102 -31.9332)" gradientUnits="userSpaceOnUse">
			<stop  offset="0.1123" style="stop-color:#FFFFFF"/>
			<stop  offset="0.1266" style="stop-color:#FEFCF9"/>
			<stop  offset="0.1485" style="stop-color:#FCF2E6"/>
			<stop  offset="0.1753" style="stop-color:#F7E2C6"/>
			<stop  offset="0.2058" style="stop-color:#F0CC9A"/>
			<stop  offset="0.2126" style="stop-color:#EFC68F"/>
			<stop  offset="0.246" style="stop-color:#DCBB8F"/>
			<stop  offset="0.3139" style="stop-color:#ACA18B"/>
			<stop  offset="0.3849" style="stop-color:#748585"/>
			<stop  offset="0.439" style="stop-color:#576467"/>
			<stop  offset="0.5034" style="stop-color:#3E474C"/>
			<stop  offset="0.5712" style="stop-color:#2A3136"/>
			<stop  offset="0.6417" style="stop-color:#1B2024"/>
			<stop  offset="0.716" style="stop-color:#0F1316"/>
			<stop  offset="0.7955" style="stop-color:#06080A"/>
			<stop  offset="0.8842" style="stop-color:#020304"/>
			<stop  offset="1" style="stop-color:#020203"/>
		</radialGradient>
		<path class="st4" d="M948.5,377c0.7,29.1-22.3,53.2-51.4,54c-29.1,0.7-53.2-22.3-54-51.4c-0.7-29.1,22.3-53.2,51.3-53.9
			C923.6,324.9,947.8,347.9,948.5,377z"/>
	</g>
</g>
<g>
	<g>
		
			<radialGradient id="SVGID_5_" cx="1058.1187" cy="466.3195" r="52.665" gradientTransform="matrix(0.9997 -2.470000e-02 2.470000e-02 0.9997 65.1102 -31.9332)" gradientUnits="userSpaceOnUse">
			<stop  offset="0.1123" style="stop-color:#FFFFFF"/>
			<stop  offset="0.1299" style="stop-color:#FEFCF9"/>
			<stop  offset="0.157" style="stop-color:#FCF2E6"/>
			<stop  offset="0.1902" style="stop-color:#F7E2C6"/>
			<stop  offset="0.2278" style="stop-color:#F0CC9A"/>
			<stop  offset="0.2362" style="stop-color:#EFC68F"/>
			<stop  offset="0.2651" style="stop-color:#DCBB8F"/>
			<stop  offset="0.3236" style="stop-color:#ACA18B"/>
			<stop  offset="0.3849" style="stop-color:#748585"/>
			<stop  offset="0.439" style="stop-color:#576467"/>
			<stop  offset="0.5034" style="stop-color:#3E474C"/>
			<stop  offset="0.5712" style="stop-color:#2A3136"/>
			<stop  offset="0.6417" style="stop-color:#1B2024"/>
			<stop  offset="0.716" style="stop-color:#0F1316"/>
			<stop  offset="0.7955" style="stop-color:#06080A"/>
			<stop  offset="0.8842" style="stop-color:#020304"/>
			<stop  offset="1" style="stop-color:#020203"/>
		</radialGradient>
		<path class="st5" d="M1187.1,406.8c0.7,29.1-22.3,53.2-51.4,54c-29.1,0.7-53.2-22.3-54-51.4c-0.7-29.1,22.3-53.2,51.3-53.9
			C1162.2,354.7,1186.4,377.7,1187.1,406.8z"/>
	</g>
</g>
<g>
	<g>
		
			<radialGradient id="SVGID_6_" cx="1317.3722" cy="425.4906" r="52.665" gradientTransform="matrix(0.9997 -2.470000e-02 2.470000e-02 0.9997 65.1102 -31.9332)" gradientUnits="userSpaceOnUse">
			<stop  offset="0.1123" style="stop-color:#FFFFFF"/>
			<stop  offset="0.1266" style="stop-color:#FEFCF9"/>
			<stop  offset="0.1485" style="stop-color:#FCF2E6"/>
			<stop  offset="0.1753" style="stop-color:#F7E2C6"/>
			<stop  offset="0.2058" style="stop-color:#F0CC9A"/>
			<stop  offset="0.2126" style="stop-color:#EFC68F"/>
			<stop  offset="0.246" style="stop-color:#DCBB8F"/>
			<stop  offset="0.3139" style="stop-color:#ACA18B"/>
			<stop  offset="0.3849" style="stop-color:#748585"/>
			<stop  offset="0.439" style="stop-color:#576467"/>
			<stop  offset="0.5034" style="stop-color:#3E474C"/>
			<stop  offset="0.5712" style="stop-color:#2A3136"/>
			<stop  offset="0.6417" style="stop-color:#1B2024"/>
			<stop  offset="0.716" style="stop-color:#0F1316"/>
			<stop  offset="0.7955" style="stop-color:#06080A"/>
			<stop  offset="0.8842" style="stop-color:#020304"/>
			<stop  offset="1" style="stop-color:#020203"/>
		</radialGradient>
		<path class="st6" d="M1445.3,359.6c0.7,29.1-22.3,53.2-51.4,54c-29.1,0.7-53.2-22.3-54-51.4c-0.7-29.1,22.3-53.2,51.3-53.9
			C1420.4,307.5,1444.5,330.5,1445.3,359.6z"/>
	</g>
</g>
<g>
	<g>
		
			<radialGradient id="SVGID_7_" cx="1464.1107" cy="673.772" r="52.665" gradientTransform="matrix(0.9997 -2.470000e-02 2.470000e-02 0.9997 65.1102 -31.9332)" gradientUnits="userSpaceOnUse">
			<stop  offset="0.1123" style="stop-color:#FFFFFF"/>
			<stop  offset="0.1266" style="stop-color:#FEFCF9"/>
			<stop  offset="0.1485" style="stop-color:#FCF2E6"/>
			<stop  offset="0.1753" style="stop-color:#F7E2C6"/>
			<stop  offset="0.2058" style="stop-color:#F0CC9A"/>
			<stop  offset="0.2126" style="stop-color:#EFC68F"/>
			<stop  offset="0.246" style="stop-color:#DCBB8F"/>
			<stop  offset="0.3139" style="stop-color:#ACA18B"/>
			<stop  offset="0.3849" style="stop-color:#748585"/>
			<stop  offset="0.439" style="stop-color:#576467"/>
			<stop  offset="0.5034" style="stop-color:#3E474C"/>
			<stop  offset="0.5712" style="stop-color:#2A3136"/>
			<stop  offset="0.6417" style="stop-color:#1B2024"/>
			<stop  offset="0.716" style="stop-color:#0F1316"/>
			<stop  offset="0.7955" style="stop-color:#06080A"/>
			<stop  offset="0.8842" style="stop-color:#020304"/>
			<stop  offset="1" style="stop-color:#020203"/>
		</radialGradient>
		<path class="st7" d="M1598.1,604.2c0.7,29.1-22.3,53.2-51.4,54c-29.1,0.7-53.2-22.3-54-51.4c-0.7-29.1,22.3-53.2,51.3-53.9
			C1573.2,552.1,1597.4,575.1,1598.1,604.2z"/>
	</g>
</g>
<g>
	<g>
		
			<radialGradient id="SVGID_8_" cx="1619.3384" cy="600.7225" r="52.665" gradientTransform="matrix(0.9997 -2.470000e-02 2.470000e-02 0.9997 65.1102 -31.9332)" gradientUnits="userSpaceOnUse">
			<stop  offset="0.1123" style="stop-color:#FFFFFF"/>
			<stop  offset="0.1266" style="stop-color:#FEFCF9"/>
			<stop  offset="0.1485" style="stop-color:#FCF2E6"/>
			<stop  offset="0.1753" style="stop-color:#F7E2C6"/>
			<stop  offset="0.2058" style="stop-color:#F0CC9A"/>
			<stop  offset="0.2126" style="stop-color:#EFC68F"/>
			<stop  offset="0.246" style="stop-color:#DCBB8F"/>
			<stop  offset="0.3139" style="stop-color:#ACA18B"/>
			<stop  offset="0.3849" style="stop-color:#748585"/>
			<stop  offset="0.439" style="stop-color:#576467"/>
			<stop  offset="0.5034" style="stop-color:#3E474C"/>
			<stop  offset="0.5712" style="stop-color:#2A3136"/>
			<stop  offset="0.6417" style="stop-color:#1B2024"/>
			<stop  offset="0.716" style="stop-color:#0F1316"/>
			<stop  offset="0.7955" style="stop-color:#06080A"/>
			<stop  offset="0.8842" style="stop-color:#020304"/>
			<stop  offset="1" style="stop-color:#020203"/>
		</radialGradient>
		<path class="st8" d="M1751.5,527.3c0.7,29.1-22.3,53.2-51.4,54c-29.1,0.7-53.2-22.3-54-51.4c-0.7-29.1,22.3-53.2,51.3-53.9
			C1726.6,475.2,1750.7,498.2,1751.5,527.3z"/>
	</g>
</g>
<g>
	<g>
		
			<radialGradient id="SVGID_9_" cx="1747.3105" cy="416.4613" r="52.665" gradientTransform="matrix(0.9997 -2.470000e-02 2.470000e-02 0.9997 65.1102 -31.9332)" gradientUnits="userSpaceOnUse">
			<stop  offset="0.1123" style="stop-color:#FFFFFF"/>
			<stop  offset="0.1266" style="stop-color:#FEFCF9"/>
			<stop  offset="0.1485" style="stop-color:#FCF2E6"/>
			<stop  offset="0.1753" style="stop-color:#F7E2C6"/>
			<stop  offset="0.2058" style="stop-color:#F0CC9A"/>
			<stop  offset="0.2126" style="stop-color:#EFC68F"/>
			<stop  offset="0.246" style="stop-color:#DCBB8F"/>
			<stop  offset="0.3139" style="stop-color:#ACA18B"/>
			<stop  offset="0.3849" style="stop-color:#748585"/>
			<stop  offset="0.439" style="stop-color:#576467"/>
			<stop  offset="0.5034" style="stop-color:#3E474C"/>
			<stop  offset="0.5712" style="stop-color:#2A3136"/>
			<stop  offset="0.6417" style="stop-color:#1B2024"/>
			<stop  offset="0.716" style="stop-color:#0F1316"/>
			<stop  offset="0.7955" style="stop-color:#06080A"/>
			<stop  offset="0.8842" style="stop-color:#020304"/>
			<stop  offset="1" style="stop-color:#020203"/>
		</radialGradient>
		<path class="st9" d="M1874.8,339.9c0.7,29.1-22.3,53.2-51.4,54c-29.1,0.7-53.2-22.3-54-51.4c-0.7-29.1,22.3-53.2,51.3-53.9
			C1850,287.9,1874.1,310.9,1874.8,339.9z"/>
	</g>
</g>
<g>
	<g>
		
			<radialGradient id="SVGID_10_" cx="1183.2825" cy="617.5942" r="52.665" gradientTransform="matrix(0.9997 -2.470000e-02 2.470000e-02 0.9997 65.1102 -31.9332)" gradientUnits="userSpaceOnUse">
			<stop  offset="0.1123" style="stop-color:#FFFFFF"/>
			<stop  offset="0.1266" style="stop-color:#FEFCF9"/>
			<stop  offset="0.1485" style="stop-color:#FCF2E6"/>
			<stop  offset="0.1753" style="stop-color:#F7E2C6"/>
			<stop  offset="0.2058" style="stop-color:#F0CC9A"/>
			<stop  offset="0.2126" style="stop-color:#EFC68F"/>
			<stop  offset="0.246" style="stop-color:#DCBB8F"/>
			<stop  offset="0.3139" style="stop-color:#ACA18B"/>
			<stop  offset="0.3849" style="stop-color:#748585"/>
			<stop  offset="0.439" style="stop-color:#576467"/>
			<stop  offset="0.5034" style="stop-color:#3E474C"/>
			<stop  offset="0.5712" style="stop-color:#2A3136"/>
			<stop  offset="0.6417" style="stop-color:#1B2024"/>
			<stop  offset="0.716" style="stop-color:#0F1316"/>
			<stop  offset="0.7955" style="stop-color:#06080A"/>
			<stop  offset="0.8842" style="stop-color:#020304"/>
			<stop  offset="1" style="stop-color:#020203"/>
		</radialGradient>
		<path class="st10" d="M1315.9,554.9c0.7,29.1-22.3,53.2-51.4,54c-29.1,0.7-53.2-22.3-54-51.4c-0.7-29.1,22.3-53.2,51.3-53.9
			C1291.1,502.9,1315.2,525.9,1315.9,554.9z"/>
	</g>
</g>
<g>
	<g>
		
			<radialGradient id="SVGID_11_" cx="756.3289" cy="727.3155" r="53.8987" gradientTransform="matrix(0.9997 -2.470000e-02 2.470000e-02 0.9997 65.1102 -31.9332)" gradientUnits="userSpaceOnUse">
			<stop  offset="0.1123" style="stop-color:#FFFFFF"/>
			<stop  offset="0.1266" style="stop-color:#FEFCF9"/>
			<stop  offset="0.1485" style="stop-color:#FCF2E6"/>
			<stop  offset="0.1753" style="stop-color:#F7E2C6"/>
			<stop  offset="0.2058" style="stop-color:#F0CC9A"/>
			<stop  offset="0.2126" style="stop-color:#EFC68F"/>
			<stop  offset="0.246" style="stop-color:#DCBB8F"/>
			<stop  offset="0.3139" style="stop-color:#ACA18B"/>
			<stop  offset="0.3849" style="stop-color:#748585"/>
			<stop  offset="0.439" style="stop-color:#576467"/>
			<stop  offset="0.5034" style="stop-color:#3E474C"/>
			<stop  offset="0.5712" style="stop-color:#2A3136"/>
			<stop  offset="0.6417" style="stop-color:#1B2024"/>
			<stop  offset="0.716" style="stop-color:#0F1316"/>
			<stop  offset="0.7955" style="stop-color:#06080A"/>
			<stop  offset="0.8842" style="stop-color:#020304"/>
			<stop  offset="1" style="stop-color:#020203"/>
		</radialGradient>
		<path class="st11" d="M893.1,675.1c0.7,29.8-22.8,54.5-52.6,55.2c-29.8,0.7-54.5-22.8-55.2-52.6c-0.7-29.7,22.8-54.5,52.5-55.2
			C867.6,621.9,892.3,645.4,893.1,675.1z"/>
	</g>
</g>
<g>
	<g>
		
			<radialGradient id="SVGID_12_" cx="627.8328" cy="555.6251" r="52.665" gradientTransform="matrix(0.9997 -2.470000e-02 2.470000e-02 0.9997 65.1102 -31.9332)" gradientUnits="userSpaceOnUse">
			<stop  offset="0.1123" style="stop-color:#FFFFFF"/>
			<stop  offset="0.1266" style="stop-color:#FEFCF9"/>
			<stop  offset="0.1485" style="stop-color:#FCF2E6"/>
			<stop  offset="0.1753" style="stop-color:#F7E2C6"/>
			<stop  offset="0.2058" style="stop-color:#F0CC9A"/>
			<stop  offset="0.2126" style="stop-color:#EFC68F"/>
			<stop  offset="0.246" style="stop-color:#DCBB8F"/>
			<stop  offset="0.3139" style="stop-color:#ACA18B"/>
			<stop  offset="0.3849" style="stop-color:#748585"/>
			<stop  offset="0.439" style="stop-color:#576467"/>
			<stop  offset="0.5034" style="stop-color:#3E474C"/>
			<stop  offset="0.5712" style="stop-color:#2A3136"/>
			<stop  offset="0.6417" style="stop-color:#1B2024"/>
			<stop  offset="0.716" style="stop-color:#0F1316"/>
			<stop  offset="0.7955" style="stop-color:#06080A"/>
			<stop  offset="0.8842" style="stop-color:#020304"/>
			<stop  offset="1" style="stop-color:#020203"/>
		</radialGradient>
		<path class="st12" d="M759.1,506.7c0.7,29.1-22.3,53.2-51.4,54c-29.1,0.7-53.2-22.3-54-51.4c-0.7-29.1,22.3-53.2,51.3-53.9
			C734.2,454.6,758.4,477.6,759.1,506.7z"/>
	</g>
</g>
</svg>
